<?xml version="1.0" encoding="UTF-8"?><svg id="_レイヤー_1" xmlns="http://www.w3.org/2000/svg" xmlns:xlink="http://www.w3.org/1999/xlink" viewBox="0 0 174.39 72.67"><defs><style>.cls-1{fill:#fff;}.cls-2{stroke-linejoin:round;}.cls-2,.cls-3{fill:none;stroke:#fff;stroke-linecap:round;stroke-width:10px;}.cls-4{filter:url(#drop-shadow-1);}.cls-3{stroke-miterlimit:10;}</style><filter id="drop-shadow-1" filterUnits="userSpaceOnUse"><feOffset dx="2.83" dy="2.83"/><feGaussianBlur result="blur" stdDeviation="5"/><feFlood flood-color="#2f3152" flood-opacity=".2"/><feComposite in2="blur" operator="in"/><feComposite in="SourceGraphic"/></filter></defs><g class="cls-4"><path class="cls-2" d="M5,66.86c8.71,1.92,16.87,.13,21.49-2.47,30.39-17.14,24.56-40.76,24.4-41.94-.05-.38-8.24,30.02,11.73,37.37,5.68,2.09,12.63,1.87,18.58-1.66,22.3-13.25,20.82-37.47,19.54-37.39-1.25,.08-3.25,29.76,8.74,36.42,20.76,11.52,38.08,2.24,38.08-14.75,0-5.25-4.9-11.53-12.41-11.53-6.25,0-12.1,4.13-12.1,13.25,0,12.53,11.4,17.42,46.34,17.42"/><line class="cls-3" x1="91.93" y1="27.22" x2="106.85" y2="26.17"/><circle class="cls-1" cx="52.61" cy="6.19" r="6.19"/></g></svg>